<?xml version="1.0" encoding="UTF-8" standalone="no"?>
<!DOCTYPE svg PUBLIC "-//W3C//DTD SVG 1.1//EN" "http://www.w3.org/Graphics/SVG/1.1/DTD/svg11.dtd">
<svg width="100%" height="100%" viewBox="0 0 8534 6034" version="1.1" xmlns="http://www.w3.org/2000/svg" xmlns:xlink="http://www.w3.org/1999/xlink" xml:space="preserve" xmlns:serif="http://www.serif.com/" style="fill-rule:evenodd;clip-rule:evenodd;stroke-linecap:round;stroke-linejoin:round;stroke-miterlimit:1.5;">
    <g transform="matrix(4.16667,0,0,4.16667,0,0)">
        <path d="M225.173,193.398L255.48,162.978L285.57,193.398L255.48,223.223L225.173,193.398Z" style="fill:none;stroke:black;stroke-width:1px;"/>
        <g transform="matrix(1,0,0,1,248.584,120.237)">
            <path d="M225.173,193.398L255.48,162.978L285.57,193.398L255.48,223.223L225.173,193.398Z" style="fill:none;stroke:black;stroke-width:1px;"/>
        </g>
        <g transform="matrix(1,0,0,1,248.584,469.264)">
            <path d="M225.173,193.398L255.48,162.978L285.57,193.398L255.48,223.223L225.173,193.398Z" style="fill:none;stroke:black;stroke-width:1px;"/>
        </g>
        <g transform="matrix(1,0,0,1,248.584,753.137)">
            <path d="M225.173,193.398L255.48,162.978L285.57,193.398L255.48,223.223L225.173,193.398Z" style="fill:none;stroke:black;stroke-width:1px;"/>
        </g>
        <g transform="matrix(1,0,0,1,210.807,1138.07)">
            <path d="M225.173,193.398L255.48,162.978L285.57,193.398L255.48,223.223L225.173,193.398Z" style="fill:none;stroke:black;stroke-width:1px;"/>
        </g>
        <g transform="matrix(1,0,0,1,772.851,961.813)">
            <path d="M225.173,193.398L255.48,162.978L285.57,193.398L255.48,223.223L225.173,193.398Z" style="fill:none;stroke:black;stroke-width:1px;"/>
        </g>
        <g transform="matrix(1,0,0,1,1088.81,589.258)">
            <path d="M225.173,193.398L255.48,162.978L285.57,193.398L255.48,223.223L225.173,193.398Z" style="fill:none;stroke:black;stroke-width:1px;"/>
        </g>
        <g transform="matrix(1,0,0,1,728.906,266.045)">
            <path d="M225.173,193.398L255.48,162.978L285.57,193.398L255.48,223.223L225.173,193.398Z" style="fill:none;stroke:black;stroke-width:1px;"/>
        </g>
        <g transform="matrix(1,0,0,1,1088.81,319.03)">
            <path d="M225.173,193.398L255.48,162.978L285.57,193.398L255.48,223.223L225.173,193.398Z" style="fill:none;stroke:black;stroke-width:1px;"/>
        </g>
        <g transform="matrix(1,0,0,1,1546.09,323.669)">
            <path d="M225.173,193.398L255.48,162.978L285.57,193.398L255.48,223.223L225.173,193.398Z" style="fill:none;stroke:black;stroke-width:1px;"/>
        </g>
        <g transform="matrix(1,0,0,1,1088.81,67.5863)">
            <path d="M225.173,193.398L255.48,162.978L285.57,193.398L255.48,223.223L225.173,193.398Z" style="fill:none;stroke:black;stroke-width:1px;"/>
        </g>
        <g id="_23" serif:id="23" transform="matrix(0.882031,0,0,0.957508,23.7175,20.4915)">
            <ellipse cx="262.841" cy="549.761" rx="25.509" ry="23.498" style="fill:none;stroke:black;stroke-width:1.09px;"/>
        </g>
        <g id="_22" serif:id="22" transform="matrix(0.882031,0,0,0.957508,107.796,139.743)">
            <ellipse cx="262.841" cy="549.761" rx="25.509" ry="23.498" style="fill:none;stroke:black;stroke-width:1.09px;"/>
        </g>
        <g id="_2" serif:id="2" transform="matrix(0.882031,0,0,0.957508,270.786,28.0763)">
            <ellipse cx="262.841" cy="549.761" rx="25.509" ry="23.498" style="fill:none;stroke:black;stroke-width:1.09px;"/>
        </g>
        <g id="_1" serif:id="1" transform="matrix(0.882031,0,0,0.957508,272.769,274.261)">
            <ellipse cx="262.841" cy="549.761" rx="25.509" ry="23.498" style="fill:none;stroke:black;stroke-width:1.09px;"/>
        </g>
        <g id="_3" serif:id="3" transform="matrix(0.882031,0,0,0.957508,515.908,-213.046)">
            <ellipse cx="262.841" cy="549.761" rx="25.509" ry="23.498" style="fill:none;stroke:black;stroke-width:1.09px;"/>
        </g>
        <g id="_17" serif:id="17" transform="matrix(0.882031,0,0,0.957508,505.68,183.942)">
            <ellipse cx="262.841" cy="549.761" rx="25.509" ry="23.498" style="fill:none;stroke:black;stroke-width:1.09px;"/>
        </g>
        <g id="_21" serif:id="21" transform="matrix(0.882031,0,0,0.957508,234.017,651.778)">
            <ellipse cx="262.841" cy="549.761" rx="25.509" ry="23.498" style="fill:none;stroke:black;stroke-width:1.09px;"/>
        </g>
        <g id="_18" serif:id="18" transform="matrix(0.882031,0,0,0.957508,656.949,627.281)">
            <ellipse cx="262.841" cy="549.761" rx="25.509" ry="23.498" style="fill:none;stroke:black;stroke-width:1.09px;"/>
        </g>
        <g id="_19" serif:id="19" transform="matrix(0.882031,0,0,0.957508,801.575,706.668)">
            <ellipse cx="262.841" cy="549.761" rx="25.509" ry="23.498" style="fill:none;stroke:black;stroke-width:1.09px;"/>
        </g>
        <g id="_20" serif:id="20" transform="matrix(0.882031,0,0,0.957508,697.344,819.733)">
            <ellipse cx="262.841" cy="549.761" rx="25.509" ry="23.498" style="fill:none;stroke:black;stroke-width:1.09px;"/>
        </g>
        <g id="_15" serif:id="15" transform="matrix(0.882031,0,0,0.957508,964.542,629.278)">
            <ellipse cx="262.841" cy="549.761" rx="25.509" ry="23.498" style="fill:none;stroke:black;stroke-width:1.09px;"/>
        </g>
        <g id="_14" serif:id="14" transform="matrix(0.882031,0,0,0.957508,1224.25,575.951)">
            <ellipse cx="262.841" cy="549.761" rx="25.509" ry="23.498" style="fill:none;stroke:black;stroke-width:1.09px;"/>
        </g>
        <g id="_13" serif:id="13" transform="matrix(0.882031,0,0,0.957508,1417.6,481.756)">
            <ellipse cx="262.841" cy="549.761" rx="25.509" ry="23.498" style="fill:none;stroke:black;stroke-width:1.09px;"/>
        </g>
        <g id="_11" serif:id="11" transform="matrix(0.882031,0,0,0.957508,1403.85,262.34)">
            <ellipse cx="262.841" cy="549.761" rx="25.509" ry="23.498" style="fill:none;stroke:black;stroke-width:1.09px;"/>
        </g>
        <g id="_12" serif:id="12" transform="matrix(0.882031,0,0,0.957508,1626.66,140.17)">
            <ellipse cx="262.841" cy="549.761" rx="25.509" ry="23.498" style="fill:none;stroke:black;stroke-width:1.09px;"/>
        </g>
        <g id="_6" serif:id="6" transform="matrix(0.882031,0,0,0.957508,1112.91,69.0126)">
            <ellipse cx="262.841" cy="549.761" rx="25.509" ry="23.498" style="fill:none;stroke:black;stroke-width:1.09px;"/>
        </g>
        <g id="_8" serif:id="8" transform="matrix(0.882031,0,0,0.957508,1322.68,-14.0253)">
            <ellipse cx="262.841" cy="549.761" rx="25.509" ry="23.498" style="fill:none;stroke:black;stroke-width:1.09px;"/>
        </g>
        <g id="_10" serif:id="10" transform="matrix(0.882031,0,0,0.957508,1566.04,-117.711)">
            <ellipse cx="262.841" cy="549.761" rx="25.509" ry="23.498" style="fill:none;stroke:black;stroke-width:1.09px;"/>
        </g>
        <g id="_9" serif:id="9" transform="matrix(0.882031,0,0,0.957508,1364.23,-272.136)">
            <ellipse cx="262.841" cy="549.761" rx="25.509" ry="23.498" style="fill:none;stroke:black;stroke-width:1.09px;"/>
        </g>
        <g id="_5" serif:id="5" transform="matrix(0.882031,0,0,0.957508,1113.65,-176.525)">
            <ellipse cx="262.841" cy="549.761" rx="25.509" ry="23.498" style="fill:none;stroke:black;stroke-width:1.09px;"/>
        </g>
        <g id="_4" serif:id="4" transform="matrix(0.882031,0,0,0.957508,899.571,-265.557)">
            <ellipse cx="262.841" cy="549.761" rx="25.509" ry="23.498" style="fill:none;stroke:black;stroke-width:1.09px;"/>
        </g>
        <g id="_24" serif:id="24" transform="matrix(0.882031,0,0,0.957508,1110.72,-370.929)">
            <ellipse cx="262.841" cy="549.761" rx="25.509" ry="23.498" style="fill:none;stroke:black;stroke-width:1.09px;"/>
        </g>
        <g id="_25" serif:id="25" transform="matrix(0.882031,0,0,0.957508,1229.1,-447.928)">
            <ellipse cx="262.841" cy="549.761" rx="25.509" ry="23.498" style="fill:none;stroke:black;stroke-width:1.09px;"/>
        </g>
        <g id="_7" serif:id="7" transform="matrix(0.882031,0,0,0.957508,988.465,-15.6805)">
            <ellipse cx="262.841" cy="549.761" rx="25.509" ry="23.498" style="fill:none;stroke:black;stroke-width:1.09px;"/>
        </g>
        <g id="_16" serif:id="16" transform="matrix(0.882031,0,0,0.957508,602.736,-72.7113)">
            <ellipse cx="262.841" cy="549.761" rx="25.509" ry="23.498" style="fill:none;stroke:black;stroke-width:1.09px;"/>
        </g>
    </g>
</svg>
